M48
; DRILL file {KiCad (6.0.6)} date Fri Jul 29 16:19:36 2022
; FORMAT={-:-/ absolute / inch / decimal}
; #@! TF.CreationDate,2022-07-29T16:19:36-07:00
; #@! TF.GenerationSoftware,Kicad,Pcbnew,(6.0.6)
; #@! TF.FileFunction,Plated,1,2,PTH
FMAT,2
INCH
; #@! TA.AperFunction,Plated,PTH,ViaDrill
T1C0.0197
; #@! TA.AperFunction,Plated,PTH,ComponentDrill
T2C0.0315
; #@! TA.AperFunction,Plated,PTH,ComponentDrill
T3C0.0374
; #@! TA.AperFunction,Plated,PTH,ComponentDrill
T4C0.0394
; #@! TA.AperFunction,Plated,PTH,ComponentDrill
T5C0.0469
; #@! TA.AperFunction,Plated,PTH,ComponentDrill
T6C0.1260
%
G90
G05
T1
X6.195Y-4.945
X6.335Y-4.645
X6.365Y-4.55
X6.38Y-4.45
X6.415Y-4.87
X6.4953Y-4.6997
X6.55Y-3.9
X6.555Y-5.025
X6.64Y-4.875
X6.655Y-4.33
X6.685Y-3.94
X6.7356Y-4.3256
X6.795Y-4.765
X6.835Y-4.9
X6.84Y-4.54
X6.85Y-4.29
X6.865Y-4.4
X6.87Y-3.955
X7.01Y-4.67
X7.125Y-4.195
X7.23Y-4.575
X7.29Y-4.285
X7.57Y-4.095
X7.62Y-4.27
X7.635Y-4.095
X7.685Y-4.1856
X7.705Y-4.315
X7.815Y-4.58
X7.945Y-4.23
X8.045Y-3.98
X8.055Y-4.35
X8.09Y-4.19
X8.105Y-4.495
X8.11Y-4.805
X8.17Y-4.1856
X8.185Y-3.975
X8.195Y-4.375
X8.32Y-3.98
X8.3399Y-4.3947
X8.35Y-4.26
X8.435Y-4.145
X8.455Y-4.37
X8.46Y-3.965
X8.49Y-4.85
X8.57Y-4.365
X8.575Y-4.47
X8.595Y-4.19
X8.6Y-3.955
X8.61Y-4.325
X8.67Y-4.365
X8.69Y-3.95
X8.71Y-4.275
X8.725Y-4.225
X8.735Y-4.385
X8.775Y-4.575
X8.785Y-3.945
X8.8Y-4.465
X8.87Y-4.52
X8.99Y-4.43
X9.015Y-4.61
X9.115Y-4.18
X9.185Y-4.155
T2
X6.2972Y-4.1
X6.3972Y-4.0
X6.4972Y-4.1
X8.195Y-4.52
X8.495Y-4.52
T3
X5.6382Y-4.0624
X5.6382Y-4.1608
X5.6382Y-4.2592
X5.6382Y-4.3576
X5.6382Y-4.6131
X5.6382Y-4.7116
X5.6382Y-4.81
X5.6382Y-4.9084
X5.6382Y-5.0069
X7.0974Y-4.0057
X7.1958Y-4.0057
X7.2942Y-4.0057
X7.3926Y-4.0057
T4
X5.6008Y-3.7843
X5.6992Y-3.7843
X5.93Y-4.36
X5.93Y-4.515
X6.03Y-4.36
X6.03Y-4.515
X6.13Y-4.36
X6.13Y-4.515
X6.3437Y-3.799
X6.4437Y-3.799
X6.5437Y-3.799
X6.6437Y-3.799
X6.7437Y-3.799
X6.8437Y-3.799
X6.9437Y-3.799
X6.9437Y-4.9278
X7.0437Y-3.799
X7.0437Y-4.9278
X7.1437Y-3.799
X7.1437Y-4.9278
X7.2437Y-3.799
X7.2437Y-4.9278
X7.3437Y-3.799
X7.3437Y-4.9278
X7.415Y-4.3256
X7.415Y-4.4256
X7.415Y-4.5256
X7.4437Y-3.799
X7.4437Y-4.9278
X7.5437Y-3.799
X7.5437Y-4.9278
X7.6437Y-3.799
X7.6437Y-4.9278
X7.74Y-4.0857
X7.74Y-4.6857
X7.7437Y-3.799
X7.7437Y-4.9278
X7.84Y-4.0857
X7.84Y-4.6857
X7.8437Y-3.799
X7.8437Y-4.9278
X7.94Y-4.0857
X7.94Y-4.6857
X7.9437Y-4.9278
X8.04Y-4.0857
X8.04Y-4.6857
X8.0437Y-4.9278
X8.14Y-4.0857
X8.14Y-4.6857
X8.1437Y-4.9278
X8.24Y-4.0857
X8.24Y-4.6857
X8.2437Y-4.9278
X8.34Y-4.0857
X8.34Y-4.6857
X8.3437Y-4.9278
X8.44Y-4.0857
X8.44Y-4.6857
X8.4437Y-4.9278
X8.54Y-4.0857
X8.54Y-4.6857
X8.64Y-4.0857
X8.64Y-4.6857
X8.74Y-4.0857
X8.74Y-4.6857
X8.84Y-4.0857
X8.84Y-4.6857
X8.94Y-4.0857
X8.94Y-4.6857
X9.04Y-4.0857
X9.04Y-4.6857
X9.14Y-4.0857
X9.14Y-4.6857
X9.2493Y-3.7858
X9.2493Y-3.8842
T5
X8.0437Y-3.8118
X8.1437Y-3.8118
X8.2437Y-3.8118
X8.3437Y-3.8118
X8.4437Y-3.8118
X8.5437Y-3.8118
X8.6437Y-3.8118
X8.7437Y-3.8118
T6
X5.9937Y-3.8
X5.9937Y-5.0
X8.9937Y-3.8
X8.9937Y-5.0
T0
M30
