%TF.GenerationSoftware,KiCad,Pcbnew,(6.0.6)*%
%TF.CreationDate,2022-07-29T16:20:17-07:00*%
%TF.ProjectId,uBitx Raduino Clone V2,75426974-7820-4526-9164-75696e6f2043,rev?*%
%TF.SameCoordinates,Original*%
%TF.FileFunction,Legend,Top*%
%TF.FilePolarity,Positive*%
%FSLAX46Y46*%
G04 Gerber Fmt 4.6, Leading zero omitted, Abs format (unit mm)*
G04 Created by KiCad (PCBNEW (6.0.6)) date 2022-07-29 16:20:17*
%MOMM*%
%LPD*%
G01*
G04 APERTURE LIST*
%ADD10C,0.150000*%
%ADD11C,0.120000*%
G04 APERTURE END LIST*
D10*
%TO.C,C3*%
X208819142Y-108370666D02*
X208866761Y-108418285D01*
X208914380Y-108561142D01*
X208914380Y-108656380D01*
X208866761Y-108799238D01*
X208771523Y-108894476D01*
X208676285Y-108942095D01*
X208485809Y-108989714D01*
X208342952Y-108989714D01*
X208152476Y-108942095D01*
X208057238Y-108894476D01*
X207962000Y-108799238D01*
X207914380Y-108656380D01*
X207914380Y-108561142D01*
X207962000Y-108418285D01*
X208009619Y-108370666D01*
X207914380Y-108037333D02*
X207914380Y-107418285D01*
X208295333Y-107751619D01*
X208295333Y-107608761D01*
X208342952Y-107513523D01*
X208390571Y-107465904D01*
X208485809Y-107418285D01*
X208723904Y-107418285D01*
X208819142Y-107465904D01*
X208866761Y-107513523D01*
X208914380Y-107608761D01*
X208914380Y-107894476D01*
X208866761Y-107989714D01*
X208819142Y-108037333D01*
%TO.C,C4*%
X195253333Y-121062142D02*
X195205714Y-121109761D01*
X195062857Y-121157380D01*
X194967619Y-121157380D01*
X194824761Y-121109761D01*
X194729523Y-121014523D01*
X194681904Y-120919285D01*
X194634285Y-120728809D01*
X194634285Y-120585952D01*
X194681904Y-120395476D01*
X194729523Y-120300238D01*
X194824761Y-120205000D01*
X194967619Y-120157380D01*
X195062857Y-120157380D01*
X195205714Y-120205000D01*
X195253333Y-120252619D01*
X196110476Y-120490714D02*
X196110476Y-121157380D01*
X195872380Y-120109761D02*
X195634285Y-120824047D01*
X196253333Y-120824047D01*
X198650714Y-122007380D02*
X198745952Y-122007380D01*
X198841190Y-122055000D01*
X198888809Y-122102619D01*
X198936428Y-122197857D01*
X198984047Y-122388333D01*
X198984047Y-122626428D01*
X198936428Y-122816904D01*
X198888809Y-122912142D01*
X198841190Y-122959761D01*
X198745952Y-123007380D01*
X198650714Y-123007380D01*
X198555476Y-122959761D01*
X198507857Y-122912142D01*
X198460238Y-122816904D01*
X198412619Y-122626428D01*
X198412619Y-122388333D01*
X198460238Y-122197857D01*
X198507857Y-122102619D01*
X198555476Y-122055000D01*
X198650714Y-122007380D01*
X199412619Y-122912142D02*
X199460238Y-122959761D01*
X199412619Y-123007380D01*
X199365000Y-122959761D01*
X199412619Y-122912142D01*
X199412619Y-123007380D01*
X200412619Y-123007380D02*
X199841190Y-123007380D01*
X200126904Y-123007380D02*
X200126904Y-122007380D01*
X200031666Y-122150238D01*
X199936428Y-122245476D01*
X199841190Y-122293095D01*
X201269761Y-122340714D02*
X201269761Y-123007380D01*
X200841190Y-122340714D02*
X200841190Y-122864523D01*
X200888809Y-122959761D01*
X200984047Y-123007380D01*
X201126904Y-123007380D01*
X201222142Y-122959761D01*
X201269761Y-122912142D01*
%TO.C,U2*%
X179692380Y-114761904D02*
X180501904Y-114761904D01*
X180597142Y-114714285D01*
X180644761Y-114666666D01*
X180692380Y-114571428D01*
X180692380Y-114380952D01*
X180644761Y-114285714D01*
X180597142Y-114238095D01*
X180501904Y-114190476D01*
X179692380Y-114190476D01*
X179787619Y-113761904D02*
X179740000Y-113714285D01*
X179692380Y-113619047D01*
X179692380Y-113380952D01*
X179740000Y-113285714D01*
X179787619Y-113238095D01*
X179882857Y-113190476D01*
X179978095Y-113190476D01*
X180120952Y-113238095D01*
X180692380Y-113809523D01*
X180692380Y-113190476D01*
X172958809Y-118768761D02*
X173101666Y-118816380D01*
X173339761Y-118816380D01*
X173435000Y-118768761D01*
X173482619Y-118721142D01*
X173530238Y-118625904D01*
X173530238Y-118530666D01*
X173482619Y-118435428D01*
X173435000Y-118387809D01*
X173339761Y-118340190D01*
X173149285Y-118292571D01*
X173054047Y-118244952D01*
X173006428Y-118197333D01*
X172958809Y-118102095D01*
X172958809Y-118006857D01*
X173006428Y-117911619D01*
X173054047Y-117864000D01*
X173149285Y-117816380D01*
X173387380Y-117816380D01*
X173530238Y-117864000D01*
X173958809Y-118816380D02*
X173958809Y-118149714D01*
X173958809Y-117816380D02*
X173911190Y-117864000D01*
X173958809Y-117911619D01*
X174006428Y-117864000D01*
X173958809Y-117816380D01*
X173958809Y-117911619D01*
X174911190Y-117816380D02*
X174435000Y-117816380D01*
X174387380Y-118292571D01*
X174435000Y-118244952D01*
X174530238Y-118197333D01*
X174768333Y-118197333D01*
X174863571Y-118244952D01*
X174911190Y-118292571D01*
X174958809Y-118387809D01*
X174958809Y-118625904D01*
X174911190Y-118721142D01*
X174863571Y-118768761D01*
X174768333Y-118816380D01*
X174530238Y-118816380D01*
X174435000Y-118768761D01*
X174387380Y-118721142D01*
X175292142Y-117816380D02*
X175911190Y-117816380D01*
X175577857Y-118197333D01*
X175720714Y-118197333D01*
X175815952Y-118244952D01*
X175863571Y-118292571D01*
X175911190Y-118387809D01*
X175911190Y-118625904D01*
X175863571Y-118721142D01*
X175815952Y-118768761D01*
X175720714Y-118816380D01*
X175435000Y-118816380D01*
X175339761Y-118768761D01*
X175292142Y-118721142D01*
X176815952Y-117816380D02*
X176339761Y-117816380D01*
X176292142Y-118292571D01*
X176339761Y-118244952D01*
X176435000Y-118197333D01*
X176673095Y-118197333D01*
X176768333Y-118244952D01*
X176815952Y-118292571D01*
X176863571Y-118387809D01*
X176863571Y-118625904D01*
X176815952Y-118721142D01*
X176768333Y-118768761D01*
X176673095Y-118816380D01*
X176435000Y-118816380D01*
X176339761Y-118768761D01*
X176292142Y-118721142D01*
X177815952Y-118816380D02*
X177244523Y-118816380D01*
X177530238Y-118816380D02*
X177530238Y-117816380D01*
X177435000Y-117959238D01*
X177339761Y-118054476D01*
X177244523Y-118102095D01*
X178196904Y-118530666D02*
X178673095Y-118530666D01*
X178101666Y-118816380D02*
X178435000Y-117816380D01*
X178768333Y-118816380D01*
X179101666Y-118435428D02*
X179863571Y-118435428D01*
X180673095Y-118292571D02*
X180815952Y-118340190D01*
X180863571Y-118387809D01*
X180911190Y-118483047D01*
X180911190Y-118625904D01*
X180863571Y-118721142D01*
X180815952Y-118768761D01*
X180720714Y-118816380D01*
X180339761Y-118816380D01*
X180339761Y-117816380D01*
X180673095Y-117816380D01*
X180768333Y-117864000D01*
X180815952Y-117911619D01*
X180863571Y-118006857D01*
X180863571Y-118102095D01*
X180815952Y-118197333D01*
X180768333Y-118244952D01*
X180673095Y-118292571D01*
X180339761Y-118292571D01*
X181339761Y-118435428D02*
X182101666Y-118435428D01*
X183101666Y-117864000D02*
X183006428Y-117816380D01*
X182863571Y-117816380D01*
X182720714Y-117864000D01*
X182625476Y-117959238D01*
X182577857Y-118054476D01*
X182530238Y-118244952D01*
X182530238Y-118387809D01*
X182577857Y-118578285D01*
X182625476Y-118673523D01*
X182720714Y-118768761D01*
X182863571Y-118816380D01*
X182958809Y-118816380D01*
X183101666Y-118768761D01*
X183149285Y-118721142D01*
X183149285Y-118387809D01*
X182958809Y-118387809D01*
X183435000Y-117816380D02*
X184006428Y-117816380D01*
X183720714Y-118816380D02*
X183720714Y-117816380D01*
%TO.C,C1*%
X160217142Y-127166666D02*
X160264761Y-127214285D01*
X160312380Y-127357142D01*
X160312380Y-127452380D01*
X160264761Y-127595238D01*
X160169523Y-127690476D01*
X160074285Y-127738095D01*
X159883809Y-127785714D01*
X159740952Y-127785714D01*
X159550476Y-127738095D01*
X159455238Y-127690476D01*
X159360000Y-127595238D01*
X159312380Y-127452380D01*
X159312380Y-127357142D01*
X159360000Y-127214285D01*
X159407619Y-127166666D01*
X160312380Y-126214285D02*
X160312380Y-126785714D01*
X160312380Y-126500000D02*
X159312380Y-126500000D01*
X159455238Y-126595238D01*
X159550476Y-126690476D01*
X159598095Y-126785714D01*
X164392380Y-128214285D02*
X164392380Y-128119047D01*
X164440000Y-128023809D01*
X164487619Y-127976190D01*
X164582857Y-127928571D01*
X164773333Y-127880952D01*
X165011428Y-127880952D01*
X165201904Y-127928571D01*
X165297142Y-127976190D01*
X165344761Y-128023809D01*
X165392380Y-128119047D01*
X165392380Y-128214285D01*
X165344761Y-128309523D01*
X165297142Y-128357142D01*
X165201904Y-128404761D01*
X165011428Y-128452380D01*
X164773333Y-128452380D01*
X164582857Y-128404761D01*
X164487619Y-128357142D01*
X164440000Y-128309523D01*
X164392380Y-128214285D01*
X165297142Y-127452380D02*
X165344761Y-127404761D01*
X165392380Y-127452380D01*
X165344761Y-127500000D01*
X165297142Y-127452380D01*
X165392380Y-127452380D01*
X165392380Y-126452380D02*
X165392380Y-127023809D01*
X165392380Y-126738095D02*
X164392380Y-126738095D01*
X164535238Y-126833333D01*
X164630476Y-126928571D01*
X164678095Y-127023809D01*
X164725714Y-125595238D02*
X165392380Y-125595238D01*
X164725714Y-126023809D02*
X165249523Y-126023809D01*
X165344761Y-125976190D01*
X165392380Y-125880952D01*
X165392380Y-125738095D01*
X165344761Y-125642857D01*
X165297142Y-125595238D01*
%TO.C,C5*%
X180013333Y-121132142D02*
X179965714Y-121179761D01*
X179822857Y-121227380D01*
X179727619Y-121227380D01*
X179584761Y-121179761D01*
X179489523Y-121084523D01*
X179441904Y-120989285D01*
X179394285Y-120798809D01*
X179394285Y-120655952D01*
X179441904Y-120465476D01*
X179489523Y-120370238D01*
X179584761Y-120275000D01*
X179727619Y-120227380D01*
X179822857Y-120227380D01*
X179965714Y-120275000D01*
X180013333Y-120322619D01*
X180918095Y-120227380D02*
X180441904Y-120227380D01*
X180394285Y-120703571D01*
X180441904Y-120655952D01*
X180537142Y-120608333D01*
X180775238Y-120608333D01*
X180870476Y-120655952D01*
X180918095Y-120703571D01*
X180965714Y-120798809D01*
X180965714Y-121036904D01*
X180918095Y-121132142D01*
X180870476Y-121179761D01*
X180775238Y-121227380D01*
X180537142Y-121227380D01*
X180441904Y-121179761D01*
X180394285Y-121132142D01*
X174520714Y-122007380D02*
X174615952Y-122007380D01*
X174711190Y-122055000D01*
X174758809Y-122102619D01*
X174806428Y-122197857D01*
X174854047Y-122388333D01*
X174854047Y-122626428D01*
X174806428Y-122816904D01*
X174758809Y-122912142D01*
X174711190Y-122959761D01*
X174615952Y-123007380D01*
X174520714Y-123007380D01*
X174425476Y-122959761D01*
X174377857Y-122912142D01*
X174330238Y-122816904D01*
X174282619Y-122626428D01*
X174282619Y-122388333D01*
X174330238Y-122197857D01*
X174377857Y-122102619D01*
X174425476Y-122055000D01*
X174520714Y-122007380D01*
X175282619Y-122912142D02*
X175330238Y-122959761D01*
X175282619Y-123007380D01*
X175235000Y-122959761D01*
X175282619Y-122912142D01*
X175282619Y-123007380D01*
X176282619Y-123007380D02*
X175711190Y-123007380D01*
X175996904Y-123007380D02*
X175996904Y-122007380D01*
X175901666Y-122150238D01*
X175806428Y-122245476D01*
X175711190Y-122293095D01*
X177139761Y-122340714D02*
X177139761Y-123007380D01*
X176711190Y-122340714D02*
X176711190Y-122864523D01*
X176758809Y-122959761D01*
X176854047Y-123007380D01*
X176996904Y-123007380D01*
X177092142Y-122959761D01*
X177139761Y-122912142D01*
%TO.C,R13*%
X171917142Y-109672380D02*
X171583809Y-109196190D01*
X171345714Y-109672380D02*
X171345714Y-108672380D01*
X171726666Y-108672380D01*
X171821904Y-108720000D01*
X171869523Y-108767619D01*
X171917142Y-108862857D01*
X171917142Y-109005714D01*
X171869523Y-109100952D01*
X171821904Y-109148571D01*
X171726666Y-109196190D01*
X171345714Y-109196190D01*
X172869523Y-109672380D02*
X172298095Y-109672380D01*
X172583809Y-109672380D02*
X172583809Y-108672380D01*
X172488571Y-108815238D01*
X172393333Y-108910476D01*
X172298095Y-108958095D01*
X173202857Y-108672380D02*
X173821904Y-108672380D01*
X173488571Y-109053333D01*
X173631428Y-109053333D01*
X173726666Y-109100952D01*
X173774285Y-109148571D01*
X173821904Y-109243809D01*
X173821904Y-109481904D01*
X173774285Y-109577142D01*
X173726666Y-109624761D01*
X173631428Y-109672380D01*
X173345714Y-109672380D01*
X173250476Y-109624761D01*
X173202857Y-109577142D01*
X172839238Y-111434619D02*
X172886857Y-111387000D01*
X172982095Y-111339380D01*
X173220190Y-111339380D01*
X173315428Y-111387000D01*
X173363047Y-111434619D01*
X173410666Y-111529857D01*
X173410666Y-111625095D01*
X173363047Y-111767952D01*
X172791619Y-112339380D01*
X173410666Y-112339380D01*
X173839238Y-112244142D02*
X173886857Y-112291761D01*
X173839238Y-112339380D01*
X173791619Y-112291761D01*
X173839238Y-112244142D01*
X173839238Y-112339380D01*
X174267809Y-111434619D02*
X174315428Y-111387000D01*
X174410666Y-111339380D01*
X174648761Y-111339380D01*
X174744000Y-111387000D01*
X174791619Y-111434619D01*
X174839238Y-111529857D01*
X174839238Y-111625095D01*
X174791619Y-111767952D01*
X174220190Y-112339380D01*
X174839238Y-112339380D01*
X175267809Y-112339380D02*
X175267809Y-111339380D01*
X175363047Y-111958428D02*
X175648761Y-112339380D01*
X175648761Y-111672714D02*
X175267809Y-112053666D01*
%TO.C,U3*%
X217551095Y-109712880D02*
X217551095Y-110522404D01*
X217598714Y-110617642D01*
X217646333Y-110665261D01*
X217741571Y-110712880D01*
X217932047Y-110712880D01*
X218027285Y-110665261D01*
X218074904Y-110617642D01*
X218122523Y-110522404D01*
X218122523Y-109712880D01*
X218503476Y-109712880D02*
X219122523Y-109712880D01*
X218789190Y-110093833D01*
X218932047Y-110093833D01*
X219027285Y-110141452D01*
X219074904Y-110189071D01*
X219122523Y-110284309D01*
X219122523Y-110522404D01*
X219074904Y-110617642D01*
X219027285Y-110665261D01*
X218932047Y-110712880D01*
X218646333Y-110712880D01*
X218551095Y-110665261D01*
X218503476Y-110617642D01*
%TO.C,C2*%
X167837142Y-127166666D02*
X167884761Y-127214285D01*
X167932380Y-127357142D01*
X167932380Y-127452380D01*
X167884761Y-127595238D01*
X167789523Y-127690476D01*
X167694285Y-127738095D01*
X167503809Y-127785714D01*
X167360952Y-127785714D01*
X167170476Y-127738095D01*
X167075238Y-127690476D01*
X166980000Y-127595238D01*
X166932380Y-127452380D01*
X166932380Y-127357142D01*
X166980000Y-127214285D01*
X167027619Y-127166666D01*
X167027619Y-126785714D02*
X166980000Y-126738095D01*
X166932380Y-126642857D01*
X166932380Y-126404761D01*
X166980000Y-126309523D01*
X167027619Y-126261904D01*
X167122857Y-126214285D01*
X167218095Y-126214285D01*
X167360952Y-126261904D01*
X167932380Y-126833333D01*
X167932380Y-126214285D01*
X172012380Y-128214285D02*
X172012380Y-128119047D01*
X172060000Y-128023809D01*
X172107619Y-127976190D01*
X172202857Y-127928571D01*
X172393333Y-127880952D01*
X172631428Y-127880952D01*
X172821904Y-127928571D01*
X172917142Y-127976190D01*
X172964761Y-128023809D01*
X173012380Y-128119047D01*
X173012380Y-128214285D01*
X172964761Y-128309523D01*
X172917142Y-128357142D01*
X172821904Y-128404761D01*
X172631428Y-128452380D01*
X172393333Y-128452380D01*
X172202857Y-128404761D01*
X172107619Y-128357142D01*
X172060000Y-128309523D01*
X172012380Y-128214285D01*
X172917142Y-127452380D02*
X172964761Y-127404761D01*
X173012380Y-127452380D01*
X172964761Y-127500000D01*
X172917142Y-127452380D01*
X173012380Y-127452380D01*
X173012380Y-126452380D02*
X173012380Y-127023809D01*
X173012380Y-126738095D02*
X172012380Y-126738095D01*
X172155238Y-126833333D01*
X172250476Y-126928571D01*
X172298095Y-127023809D01*
X172345714Y-125595238D02*
X173012380Y-125595238D01*
X172345714Y-126023809D02*
X172869523Y-126023809D01*
X172964761Y-125976190D01*
X173012380Y-125880952D01*
X173012380Y-125738095D01*
X172964761Y-125642857D01*
X172917142Y-125595238D01*
%TO.C,R14*%
X171917142Y-117292380D02*
X171583809Y-116816190D01*
X171345714Y-117292380D02*
X171345714Y-116292380D01*
X171726666Y-116292380D01*
X171821904Y-116340000D01*
X171869523Y-116387619D01*
X171917142Y-116482857D01*
X171917142Y-116625714D01*
X171869523Y-116720952D01*
X171821904Y-116768571D01*
X171726666Y-116816190D01*
X171345714Y-116816190D01*
X172869523Y-117292380D02*
X172298095Y-117292380D01*
X172583809Y-117292380D02*
X172583809Y-116292380D01*
X172488571Y-116435238D01*
X172393333Y-116530476D01*
X172298095Y-116578095D01*
X173726666Y-116625714D02*
X173726666Y-117292380D01*
X173488571Y-116244761D02*
X173250476Y-116959047D01*
X173869523Y-116959047D01*
X172839238Y-113974619D02*
X172886857Y-113927000D01*
X172982095Y-113879380D01*
X173220190Y-113879380D01*
X173315428Y-113927000D01*
X173363047Y-113974619D01*
X173410666Y-114069857D01*
X173410666Y-114165095D01*
X173363047Y-114307952D01*
X172791619Y-114879380D01*
X173410666Y-114879380D01*
X173839238Y-114784142D02*
X173886857Y-114831761D01*
X173839238Y-114879380D01*
X173791619Y-114831761D01*
X173839238Y-114784142D01*
X173839238Y-114879380D01*
X174267809Y-113974619D02*
X174315428Y-113927000D01*
X174410666Y-113879380D01*
X174648761Y-113879380D01*
X174744000Y-113927000D01*
X174791619Y-113974619D01*
X174839238Y-114069857D01*
X174839238Y-114165095D01*
X174791619Y-114307952D01*
X174220190Y-114879380D01*
X174839238Y-114879380D01*
X175267809Y-114879380D02*
X175267809Y-113879380D01*
X175363047Y-114498428D02*
X175648761Y-114879380D01*
X175648761Y-114212714D02*
X175267809Y-114593666D01*
%TO.C,R2*%
X212881380Y-108370666D02*
X212405190Y-108704000D01*
X212881380Y-108942095D02*
X211881380Y-108942095D01*
X211881380Y-108561142D01*
X211929000Y-108465904D01*
X211976619Y-108418285D01*
X212071857Y-108370666D01*
X212214714Y-108370666D01*
X212309952Y-108418285D01*
X212357571Y-108465904D01*
X212405190Y-108561142D01*
X212405190Y-108942095D01*
X211976619Y-107989714D02*
X211929000Y-107942095D01*
X211881380Y-107846857D01*
X211881380Y-107608761D01*
X211929000Y-107513523D01*
X211976619Y-107465904D01*
X212071857Y-107418285D01*
X212167095Y-107418285D01*
X212309952Y-107465904D01*
X212881380Y-108037333D01*
X212881380Y-107418285D01*
%TO.C,C6*%
X186363333Y-121132142D02*
X186315714Y-121179761D01*
X186172857Y-121227380D01*
X186077619Y-121227380D01*
X185934761Y-121179761D01*
X185839523Y-121084523D01*
X185791904Y-120989285D01*
X185744285Y-120798809D01*
X185744285Y-120655952D01*
X185791904Y-120465476D01*
X185839523Y-120370238D01*
X185934761Y-120275000D01*
X186077619Y-120227380D01*
X186172857Y-120227380D01*
X186315714Y-120275000D01*
X186363333Y-120322619D01*
X187220476Y-120227380D02*
X187030000Y-120227380D01*
X186934761Y-120275000D01*
X186887142Y-120322619D01*
X186791904Y-120465476D01*
X186744285Y-120655952D01*
X186744285Y-121036904D01*
X186791904Y-121132142D01*
X186839523Y-121179761D01*
X186934761Y-121227380D01*
X187125238Y-121227380D01*
X187220476Y-121179761D01*
X187268095Y-121132142D01*
X187315714Y-121036904D01*
X187315714Y-120798809D01*
X187268095Y-120703571D01*
X187220476Y-120655952D01*
X187125238Y-120608333D01*
X186934761Y-120608333D01*
X186839523Y-120655952D01*
X186791904Y-120703571D01*
X186744285Y-120798809D01*
X189760714Y-122007380D02*
X189855952Y-122007380D01*
X189951190Y-122055000D01*
X189998809Y-122102619D01*
X190046428Y-122197857D01*
X190094047Y-122388333D01*
X190094047Y-122626428D01*
X190046428Y-122816904D01*
X189998809Y-122912142D01*
X189951190Y-122959761D01*
X189855952Y-123007380D01*
X189760714Y-123007380D01*
X189665476Y-122959761D01*
X189617857Y-122912142D01*
X189570238Y-122816904D01*
X189522619Y-122626428D01*
X189522619Y-122388333D01*
X189570238Y-122197857D01*
X189617857Y-122102619D01*
X189665476Y-122055000D01*
X189760714Y-122007380D01*
X190522619Y-122912142D02*
X190570238Y-122959761D01*
X190522619Y-123007380D01*
X190475000Y-122959761D01*
X190522619Y-122912142D01*
X190522619Y-123007380D01*
X191522619Y-123007380D02*
X190951190Y-123007380D01*
X191236904Y-123007380D02*
X191236904Y-122007380D01*
X191141666Y-122150238D01*
X191046428Y-122245476D01*
X190951190Y-122293095D01*
X192379761Y-122340714D02*
X192379761Y-123007380D01*
X191951190Y-122340714D02*
X191951190Y-122864523D01*
X191998809Y-122959761D01*
X192094047Y-123007380D01*
X192236904Y-123007380D01*
X192332142Y-122959761D01*
X192379761Y-122912142D01*
%TO.C,R1*%
X221898380Y-108243666D02*
X221422190Y-108577000D01*
X221898380Y-108815095D02*
X220898380Y-108815095D01*
X220898380Y-108434142D01*
X220946000Y-108338904D01*
X220993619Y-108291285D01*
X221088857Y-108243666D01*
X221231714Y-108243666D01*
X221326952Y-108291285D01*
X221374571Y-108338904D01*
X221422190Y-108434142D01*
X221422190Y-108815095D01*
X221898380Y-107291285D02*
X221898380Y-107862714D01*
X221898380Y-107577000D02*
X220898380Y-107577000D01*
X221041238Y-107672238D01*
X221136476Y-107767476D01*
X221184095Y-107862714D01*
%TO.C,Y1*%
X172171809Y-101316190D02*
X172171809Y-101792380D01*
X171838476Y-100792380D02*
X172171809Y-101316190D01*
X172505142Y-100792380D01*
X173362285Y-101792380D02*
X172790857Y-101792380D01*
X173076571Y-101792380D02*
X173076571Y-100792380D01*
X172981333Y-100935238D01*
X172886095Y-101030476D01*
X172790857Y-101078095D01*
X171314666Y-106487619D02*
X171362285Y-106440000D01*
X171457523Y-106392380D01*
X171695619Y-106392380D01*
X171790857Y-106440000D01*
X171838476Y-106487619D01*
X171886095Y-106582857D01*
X171886095Y-106678095D01*
X171838476Y-106820952D01*
X171267047Y-107392380D01*
X171886095Y-107392380D01*
X172790857Y-106392380D02*
X172314666Y-106392380D01*
X172267047Y-106868571D01*
X172314666Y-106820952D01*
X172409904Y-106773333D01*
X172648000Y-106773333D01*
X172743238Y-106820952D01*
X172790857Y-106868571D01*
X172838476Y-106963809D01*
X172838476Y-107201904D01*
X172790857Y-107297142D01*
X172743238Y-107344761D01*
X172648000Y-107392380D01*
X172409904Y-107392380D01*
X172314666Y-107344761D01*
X172267047Y-107297142D01*
X173267047Y-107392380D02*
X173267047Y-106392380D01*
X173600380Y-107106666D01*
X173933714Y-106392380D01*
X173933714Y-107392380D01*
%TO.C,D1*%
X211224904Y-113140380D02*
X211224904Y-112140380D01*
X211463000Y-112140380D01*
X211605857Y-112188000D01*
X211701095Y-112283238D01*
X211748714Y-112378476D01*
X211796333Y-112568952D01*
X211796333Y-112711809D01*
X211748714Y-112902285D01*
X211701095Y-112997523D01*
X211605857Y-113092761D01*
X211463000Y-113140380D01*
X211224904Y-113140380D01*
X212748714Y-113140380D02*
X212177285Y-113140380D01*
X212463000Y-113140380D02*
X212463000Y-112140380D01*
X212367761Y-112283238D01*
X212272523Y-112378476D01*
X212177285Y-112426095D01*
X208939190Y-117380380D02*
X208367761Y-117380380D01*
X208653476Y-117380380D02*
X208653476Y-116380380D01*
X208558238Y-116523238D01*
X208463000Y-116618476D01*
X208367761Y-116666095D01*
X209367761Y-117380380D02*
X209367761Y-116380380D01*
X209939190Y-117380380D01*
X209939190Y-116380380D01*
X210843952Y-116713714D02*
X210843952Y-117380380D01*
X210605857Y-116332761D02*
X210367761Y-117047047D01*
X210986809Y-117047047D01*
X211891571Y-117380380D02*
X211320142Y-117380380D01*
X211605857Y-117380380D02*
X211605857Y-116380380D01*
X211510619Y-116523238D01*
X211415380Y-116618476D01*
X211320142Y-116666095D01*
X212748714Y-116713714D02*
X212748714Y-117380380D01*
X212510619Y-116332761D02*
X212272523Y-117047047D01*
X212891571Y-117047047D01*
X213415380Y-116808952D02*
X213320142Y-116761333D01*
X213272523Y-116713714D01*
X213224904Y-116618476D01*
X213224904Y-116570857D01*
X213272523Y-116475619D01*
X213320142Y-116428000D01*
X213415380Y-116380380D01*
X213605857Y-116380380D01*
X213701095Y-116428000D01*
X213748714Y-116475619D01*
X213796333Y-116570857D01*
X213796333Y-116618476D01*
X213748714Y-116713714D01*
X213701095Y-116761333D01*
X213605857Y-116808952D01*
X213415380Y-116808952D01*
X213320142Y-116856571D01*
X213272523Y-116904190D01*
X213224904Y-116999428D01*
X213224904Y-117189904D01*
X213272523Y-117285142D01*
X213320142Y-117332761D01*
X213415380Y-117380380D01*
X213605857Y-117380380D01*
X213701095Y-117332761D01*
X213748714Y-117285142D01*
X213796333Y-117189904D01*
X213796333Y-116999428D01*
X213748714Y-116904190D01*
X213701095Y-116856571D01*
X213605857Y-116808952D01*
X214082047Y-116380380D02*
X214653476Y-116380380D01*
X214367761Y-117380380D02*
X214367761Y-116380380D01*
X215558238Y-117380380D02*
X215224904Y-116904190D01*
X214986809Y-117380380D02*
X214986809Y-116380380D01*
X215367761Y-116380380D01*
X215463000Y-116428000D01*
X215510619Y-116475619D01*
X215558238Y-116570857D01*
X215558238Y-116713714D01*
X215510619Y-116808952D01*
X215463000Y-116856571D01*
X215367761Y-116904190D01*
X214986809Y-116904190D01*
%TO.C,P2*%
X158812380Y-97233095D02*
X157812380Y-97233095D01*
X157812380Y-96852142D01*
X157860000Y-96756904D01*
X157907619Y-96709285D01*
X158002857Y-96661666D01*
X158145714Y-96661666D01*
X158240952Y-96709285D01*
X158288571Y-96756904D01*
X158336190Y-96852142D01*
X158336190Y-97233095D01*
X157907619Y-96280714D02*
X157860000Y-96233095D01*
X157812380Y-96137857D01*
X157812380Y-95899761D01*
X157860000Y-95804523D01*
X157907619Y-95756904D01*
X158002857Y-95709285D01*
X158098095Y-95709285D01*
X158240952Y-95756904D01*
X158812380Y-96328333D01*
X158812380Y-95709285D01*
X186197095Y-99385380D02*
X185720904Y-99385380D01*
X185720904Y-98385380D01*
X187101857Y-99290142D02*
X187054238Y-99337761D01*
X186911380Y-99385380D01*
X186816142Y-99385380D01*
X186673285Y-99337761D01*
X186578047Y-99242523D01*
X186530428Y-99147285D01*
X186482809Y-98956809D01*
X186482809Y-98813952D01*
X186530428Y-98623476D01*
X186578047Y-98528238D01*
X186673285Y-98433000D01*
X186816142Y-98385380D01*
X186911380Y-98385380D01*
X187054238Y-98433000D01*
X187101857Y-98480619D01*
X187530428Y-99385380D02*
X187530428Y-98385380D01*
X187768523Y-98385380D01*
X187911380Y-98433000D01*
X188006619Y-98528238D01*
X188054238Y-98623476D01*
X188101857Y-98813952D01*
X188101857Y-98956809D01*
X188054238Y-99147285D01*
X188006619Y-99242523D01*
X187911380Y-99337761D01*
X187768523Y-99385380D01*
X187530428Y-99385380D01*
X189292333Y-99385380D02*
X189292333Y-98385380D01*
X189530428Y-98385380D01*
X189673285Y-98433000D01*
X189768523Y-98528238D01*
X189816142Y-98623476D01*
X189863761Y-98813952D01*
X189863761Y-98956809D01*
X189816142Y-99147285D01*
X189768523Y-99242523D01*
X189673285Y-99337761D01*
X189530428Y-99385380D01*
X189292333Y-99385380D01*
X190292333Y-99385380D02*
X190292333Y-98718714D01*
X190292333Y-98385380D02*
X190244714Y-98433000D01*
X190292333Y-98480619D01*
X190339952Y-98433000D01*
X190292333Y-98385380D01*
X190292333Y-98480619D01*
X190720904Y-99337761D02*
X190816142Y-99385380D01*
X191006619Y-99385380D01*
X191101857Y-99337761D01*
X191149476Y-99242523D01*
X191149476Y-99194904D01*
X191101857Y-99099666D01*
X191006619Y-99052047D01*
X190863761Y-99052047D01*
X190768523Y-99004428D01*
X190720904Y-98909190D01*
X190720904Y-98861571D01*
X190768523Y-98766333D01*
X190863761Y-98718714D01*
X191006619Y-98718714D01*
X191101857Y-98766333D01*
X191578047Y-98718714D02*
X191578047Y-99718714D01*
X191578047Y-98766333D02*
X191673285Y-98718714D01*
X191863761Y-98718714D01*
X191959000Y-98766333D01*
X192006619Y-98813952D01*
X192054238Y-98909190D01*
X192054238Y-99194904D01*
X192006619Y-99290142D01*
X191959000Y-99337761D01*
X191863761Y-99385380D01*
X191673285Y-99385380D01*
X191578047Y-99337761D01*
X192625666Y-99385380D02*
X192530428Y-99337761D01*
X192482809Y-99242523D01*
X192482809Y-98385380D01*
X193435190Y-99385380D02*
X193435190Y-98861571D01*
X193387571Y-98766333D01*
X193292333Y-98718714D01*
X193101857Y-98718714D01*
X193006619Y-98766333D01*
X193435190Y-99337761D02*
X193339952Y-99385380D01*
X193101857Y-99385380D01*
X193006619Y-99337761D01*
X192959000Y-99242523D01*
X192959000Y-99147285D01*
X193006619Y-99052047D01*
X193101857Y-99004428D01*
X193339952Y-99004428D01*
X193435190Y-98956809D01*
X193816142Y-98718714D02*
X194054238Y-99385380D01*
X194292333Y-98718714D02*
X194054238Y-99385380D01*
X193959000Y-99623476D01*
X193911380Y-99671095D01*
X193816142Y-99718714D01*
%TO.C,U4*%
X228970380Y-111251904D02*
X229779904Y-111251904D01*
X229875142Y-111204285D01*
X229922761Y-111156666D01*
X229970380Y-111061428D01*
X229970380Y-110870952D01*
X229922761Y-110775714D01*
X229875142Y-110728095D01*
X229779904Y-110680476D01*
X228970380Y-110680476D01*
X229303714Y-109775714D02*
X229970380Y-109775714D01*
X228922761Y-110013809D02*
X229637047Y-110251904D01*
X229637047Y-109632857D01*
%TO.C,P3*%
X219018095Y-128722380D02*
X219018095Y-127722380D01*
X218637142Y-127722380D01*
X218541904Y-127770000D01*
X218494285Y-127817619D01*
X218446666Y-127912857D01*
X218446666Y-128055714D01*
X218494285Y-128150952D01*
X218541904Y-128198571D01*
X218637142Y-128246190D01*
X219018095Y-128246190D01*
X218113333Y-127722380D02*
X217494285Y-127722380D01*
X217827619Y-128103333D01*
X217684761Y-128103333D01*
X217589523Y-128150952D01*
X217541904Y-128198571D01*
X217494285Y-128293809D01*
X217494285Y-128531904D01*
X217541904Y-128627142D01*
X217589523Y-128674761D01*
X217684761Y-128722380D01*
X217970476Y-128722380D01*
X218065714Y-128674761D01*
X218113333Y-128627142D01*
D11*
%TO.C,C3*%
X211222000Y-108915252D02*
X211222000Y-107492748D01*
X209402000Y-108915252D02*
X209402000Y-107492748D01*
%TO.C,C4*%
X194708748Y-121645000D02*
X196131252Y-121645000D01*
X194708748Y-123465000D02*
X196131252Y-123465000D01*
D10*
%TO.C,U2*%
X175965000Y-112325000D02*
X176265000Y-112325000D01*
X179090000Y-112325000D02*
X179090000Y-111100000D01*
X175965000Y-115675000D02*
X176265000Y-115675000D01*
X179315000Y-112325000D02*
X179315000Y-115675000D01*
X179315000Y-115675000D02*
X179015000Y-115675000D01*
X175965000Y-112325000D02*
X175965000Y-115675000D01*
X179315000Y-112325000D02*
X179090000Y-112325000D01*
D11*
%TO.C,C1*%
X161490000Y-126288748D02*
X161490000Y-127711252D01*
X163310000Y-126288748D02*
X163310000Y-127711252D01*
%TO.C,C5*%
X179468748Y-121715000D02*
X180891252Y-121715000D01*
X179468748Y-123535000D02*
X180891252Y-123535000D01*
%TO.C,R13*%
X170747064Y-110850000D02*
X169292936Y-110850000D01*
X170747064Y-112670000D02*
X169292936Y-112670000D01*
%TO.C,U3*%
X218313000Y-109360500D02*
X217313000Y-109360500D01*
X219313000Y-107160500D02*
X217313000Y-107160500D01*
%TO.C,C2*%
X169110000Y-126288748D02*
X169110000Y-127711252D01*
X170930000Y-126288748D02*
X170930000Y-127711252D01*
%TO.C,R14*%
X169292936Y-115210000D02*
X170747064Y-115210000D01*
X169292936Y-113390000D02*
X170747064Y-113390000D01*
%TO.C,R2*%
X215159000Y-108931064D02*
X215159000Y-107476936D01*
X213339000Y-108931064D02*
X213339000Y-107476936D01*
%TO.C,C6*%
X185818748Y-121715000D02*
X187241252Y-121715000D01*
X185818748Y-123535000D02*
X187241252Y-123535000D01*
%TO.C,R1*%
X224176000Y-108804064D02*
X224176000Y-107349936D01*
X222356000Y-108804064D02*
X222356000Y-107349936D01*
%TO.C,Y1*%
X169598000Y-102340000D02*
X169598000Y-105940000D01*
X175348000Y-102340000D02*
X169598000Y-102340000D01*
X169598000Y-105940000D02*
X175348000Y-105940000D01*
%TO.C,D1*%
X209193000Y-114808000D02*
X209843000Y-114808000D01*
X210683000Y-113688000D02*
X210683000Y-115928000D01*
X209843000Y-113688000D02*
X209843000Y-115928000D01*
X210563000Y-113688000D02*
X210563000Y-115928000D01*
X214083000Y-115928000D02*
X214083000Y-113688000D01*
X210443000Y-113688000D02*
X210443000Y-115928000D01*
X214083000Y-113688000D02*
X209843000Y-113688000D01*
X209843000Y-115928000D02*
X214083000Y-115928000D01*
X214733000Y-114808000D02*
X214083000Y-114808000D01*
%TO.C,P2*%
X200560000Y-97825000D02*
X200560000Y-95165000D01*
X162400000Y-97825000D02*
X200560000Y-97825000D01*
X159800000Y-95165000D02*
X161130000Y-95165000D01*
X159800000Y-96495000D02*
X159800000Y-95165000D01*
X162400000Y-95165000D02*
X200560000Y-95165000D01*
X162400000Y-97825000D02*
X162400000Y-95165000D01*
%TO.C,U4*%
X235478000Y-110490000D02*
X235478000Y-108540000D01*
X230358000Y-110490000D02*
X230358000Y-108540000D01*
X235478000Y-110490000D02*
X235478000Y-112440000D01*
X230358000Y-110490000D02*
X230358000Y-113940000D01*
%TD*%
M02*
