%TF.GenerationSoftware,KiCad,Pcbnew,(6.0.6)*%
%TF.CreationDate,2022-07-29T16:20:17-07:00*%
%TF.ProjectId,uBitx Raduino Clone V2,75426974-7820-4526-9164-75696e6f2043,rev?*%
%TF.SameCoordinates,Original*%
%TF.FileFunction,Soldermask,Bot*%
%TF.FilePolarity,Negative*%
%FSLAX46Y46*%
G04 Gerber Fmt 4.6, Leading zero omitted, Abs format (unit mm)*
G04 Created by KiCad (PCBNEW (6.0.6)) date 2022-07-29 16:20:17*
%MOMM*%
%LPD*%
G01*
G04 APERTURE LIST*
G04 Aperture macros list*
%AMRoundRect*
0 Rectangle with rounded corners*
0 $1 Rounding radius*
0 $2 $3 $4 $5 $6 $7 $8 $9 X,Y pos of 4 corners*
0 Add a 4 corners polygon primitive as box body*
4,1,4,$2,$3,$4,$5,$6,$7,$8,$9,$2,$3,0*
0 Add four circle primitives for the rounded corners*
1,1,$1+$1,$2,$3*
1,1,$1+$1,$4,$5*
1,1,$1+$1,$6,$7*
1,1,$1+$1,$8,$9*
0 Add four rect primitives between the rounded corners*
20,1,$1+$1,$2,$3,$4,$5,0*
20,1,$1+$1,$4,$5,$6,$7,0*
20,1,$1+$1,$6,$7,$8,$9,0*
20,1,$1+$1,$8,$9,$2,$3,0*%
G04 Aperture macros list end*
%ADD10C,6.400000*%
%ADD11R,1.600000X1.600000*%
%ADD12O,1.600000X1.600000*%
%ADD13R,1.700000X1.700000*%
%ADD14O,1.700000X1.700000*%
%ADD15RoundRect,0.250000X-0.750000X0.600000X-0.750000X-0.600000X0.750000X-0.600000X0.750000X0.600000X0*%
%ADD16O,2.000000X1.700000*%
%ADD17C,1.440000*%
%ADD18RoundRect,0.250000X0.725000X-0.600000X0.725000X0.600000X-0.725000X0.600000X-0.725000X-0.600000X0*%
%ADD19O,1.950000X1.700000*%
%ADD20O,1.740000X2.190000*%
%ADD21RoundRect,0.250000X0.620000X0.845000X-0.620000X0.845000X-0.620000X-0.845000X0.620000X-0.845000X0*%
%ADD22RoundRect,0.250000X-0.600000X-0.725000X0.600000X-0.725000X0.600000X0.725000X-0.600000X0.725000X0*%
%ADD23O,1.700000X1.950000*%
%ADD24C,1.600000*%
%ADD25RoundRect,0.250000X0.600000X0.750000X-0.600000X0.750000X-0.600000X-0.750000X0.600000X-0.750000X0*%
%ADD26O,1.700000X2.000000*%
G04 APERTURE END LIST*
D10*
%TO.C,REF\u002A\u002A*%
X152240000Y-127000000D03*
%TD*%
%TO.C,REF\u002A\u002A*%
X228440000Y-96520000D03*
%TD*%
%TO.C,REF\u002A\u002A*%
X152240000Y-96520000D03*
%TD*%
%TO.C,REF\u002A\u002A*%
X228440000Y-127000000D03*
%TD*%
D11*
%TO.C,D1*%
X208153000Y-114808000D03*
D12*
X215773000Y-114808000D03*
%TD*%
D13*
%TO.C,P2*%
X161130000Y-96495000D03*
D14*
X163670000Y-96495000D03*
X166210000Y-96495000D03*
X168750000Y-96495000D03*
X171290000Y-96495000D03*
X173830000Y-96495000D03*
X176370000Y-96495000D03*
X178910000Y-96495000D03*
X181450000Y-96495000D03*
X183990000Y-96495000D03*
X186530000Y-96495000D03*
X189070000Y-96495000D03*
X191610000Y-96495000D03*
X194150000Y-96495000D03*
X196690000Y-96495000D03*
X199230000Y-96495000D03*
%TD*%
%TO.C,P3*%
X214470000Y-125165000D03*
X211930000Y-125165000D03*
X209390000Y-125165000D03*
X206850000Y-125165000D03*
X204310000Y-125165000D03*
X201770000Y-125165000D03*
X199230000Y-125165000D03*
X196690000Y-125165000D03*
X194150000Y-125165000D03*
X191610000Y-125165000D03*
X189070000Y-125165000D03*
X186530000Y-125165000D03*
X183990000Y-125165000D03*
X181450000Y-125165000D03*
X178910000Y-125165000D03*
D13*
X176370000Y-125165000D03*
%TD*%
D15*
%TO.C,P7*%
X234933000Y-96159000D03*
D16*
X234933000Y-98659000D03*
%TD*%
D17*
%TO.C,RV1*%
X159948000Y-104140000D03*
X162488000Y-101600000D03*
X165028000Y-104140000D03*
%TD*%
D18*
%TO.C,P5*%
X143210000Y-110684000D03*
D19*
X143210000Y-108184000D03*
X143210000Y-105684000D03*
X143210000Y-103184000D03*
%TD*%
D20*
%TO.C,P1*%
X204310000Y-96819000D03*
X206850000Y-96819000D03*
X209390000Y-96819000D03*
X211930000Y-96819000D03*
X214470000Y-96819000D03*
X217010000Y-96819000D03*
X219550000Y-96819000D03*
D21*
X222090000Y-96819000D03*
%TD*%
D22*
%TO.C,J2*%
X180273000Y-101744000D03*
D23*
X182773000Y-101744000D03*
X185273000Y-101744000D03*
X187773000Y-101744000D03*
%TD*%
D18*
%TO.C,J1*%
X143210000Y-127174000D03*
D19*
X143210000Y-124674000D03*
X143210000Y-122174000D03*
X143210000Y-119674000D03*
X143210000Y-117174000D03*
%TD*%
D13*
%TO.C,JP2*%
X155702000Y-110744000D03*
D14*
X153162000Y-110744000D03*
X150622000Y-110744000D03*
%TD*%
D11*
%TO.C,U1*%
X196596000Y-119016500D03*
D12*
X199136000Y-119016500D03*
X201676000Y-119016500D03*
X204216000Y-119016500D03*
X206756000Y-119016500D03*
X209296000Y-119016500D03*
X211836000Y-119016500D03*
X214376000Y-119016500D03*
X216916000Y-119016500D03*
X219456000Y-119016500D03*
X221996000Y-119016500D03*
X224536000Y-119016500D03*
X227076000Y-119016500D03*
X229616000Y-119016500D03*
X232156000Y-119016500D03*
X232156000Y-103776500D03*
X229616000Y-103776500D03*
X227076000Y-103776500D03*
X224536000Y-103776500D03*
X221996000Y-103776500D03*
X219456000Y-103776500D03*
X216916000Y-103776500D03*
X214376000Y-103776500D03*
X211836000Y-103776500D03*
X209296000Y-103776500D03*
X206756000Y-103776500D03*
X204216000Y-103776500D03*
X201676000Y-103776500D03*
X199136000Y-103776500D03*
D24*
X196596000Y-103776500D03*
%TD*%
D14*
%TO.C,JP3*%
X150622000Y-114681000D03*
X153162000Y-114681000D03*
D13*
X155702000Y-114681000D03*
%TD*%
D25*
%TO.C,P4*%
X144760000Y-96122000D03*
D26*
X142260000Y-96122000D03*
%TD*%
D13*
%TO.C,JP1*%
X188341000Y-109870000D03*
D14*
X188341000Y-112410000D03*
X188341000Y-114950000D03*
%TD*%
M02*
