%TF.GenerationSoftware,KiCad,Pcbnew,(6.0.6)*%
%TF.CreationDate,2022-07-29T16:20:17-07:00*%
%TF.ProjectId,uBitx Raduino Clone V2,75426974-7820-4526-9164-75696e6f2043,rev?*%
%TF.SameCoordinates,Original*%
%TF.FileFunction,Paste,Top*%
%TF.FilePolarity,Positive*%
%FSLAX46Y46*%
G04 Gerber Fmt 4.6, Leading zero omitted, Abs format (unit mm)*
G04 Created by KiCad (PCBNEW (6.0.6)) date 2022-07-29 16:20:17*
%MOMM*%
%LPD*%
G01*
G04 APERTURE LIST*
G04 Aperture macros list*
%AMRoundRect*
0 Rectangle with rounded corners*
0 $1 Rounding radius*
0 $2 $3 $4 $5 $6 $7 $8 $9 X,Y pos of 4 corners*
0 Add a 4 corners polygon primitive as box body*
4,1,4,$2,$3,$4,$5,$6,$7,$8,$9,$2,$3,0*
0 Add four circle primitives for the rounded corners*
1,1,$1+$1,$2,$3*
1,1,$1+$1,$4,$5*
1,1,$1+$1,$6,$7*
1,1,$1+$1,$8,$9*
0 Add four rect primitives between the rounded corners*
20,1,$1+$1,$2,$3,$4,$5,0*
20,1,$1+$1,$4,$5,$6,$7,0*
20,1,$1+$1,$6,$7,$8,$9,0*
20,1,$1+$1,$8,$9,$2,$3,0*%
G04 Aperture macros list end*
%ADD10RoundRect,0.250000X0.650000X-0.325000X0.650000X0.325000X-0.650000X0.325000X-0.650000X-0.325000X0*%
%ADD11RoundRect,0.250000X-0.325000X-0.650000X0.325000X-0.650000X0.325000X0.650000X-0.325000X0.650000X0*%
%ADD12R,0.300000X1.400000*%
%ADD13RoundRect,0.250000X-0.650000X0.325000X-0.650000X-0.325000X0.650000X-0.325000X0.650000X0.325000X0*%
%ADD14RoundRect,0.250000X0.312500X0.625000X-0.312500X0.625000X-0.312500X-0.625000X0.312500X-0.625000X0*%
%ADD15R,0.850000X0.650000*%
%ADD16R,0.500000X0.300000*%
%ADD17RoundRect,0.250000X-0.312500X-0.625000X0.312500X-0.625000X0.312500X0.625000X-0.312500X0.625000X0*%
%ADD18RoundRect,0.250000X0.625000X-0.312500X0.625000X0.312500X-0.625000X0.312500X-0.625000X-0.312500X0*%
%ADD19R,2.000000X2.400000*%
%ADD20RoundRect,0.150000X0.150000X-0.825000X0.150000X0.825000X-0.150000X0.825000X-0.150000X-0.825000X0*%
G04 APERTURE END LIST*
D10*
%TO.C,C3*%
X210312000Y-109679000D03*
X210312000Y-106729000D03*
%TD*%
D11*
%TO.C,C4*%
X193945000Y-122555000D03*
X196895000Y-122555000D03*
%TD*%
D12*
%TO.C,U2*%
X178640000Y-111800000D03*
X178140000Y-111800000D03*
X177640000Y-111800000D03*
X177140000Y-111800000D03*
X176640000Y-111800000D03*
X176640000Y-116200000D03*
X177140000Y-116200000D03*
X177640000Y-116200000D03*
X178140000Y-116200000D03*
X178640000Y-116200000D03*
%TD*%
D13*
%TO.C,C1*%
X162400000Y-125525000D03*
X162400000Y-128475000D03*
%TD*%
D11*
%TO.C,C5*%
X178705000Y-122625000D03*
X181655000Y-122625000D03*
%TD*%
D14*
%TO.C,R13*%
X171482500Y-111760000D03*
X168557500Y-111760000D03*
%TD*%
D15*
%TO.C,U3*%
X218313000Y-108698000D03*
X218313000Y-107823000D03*
D16*
X219213000Y-109010500D03*
X219213000Y-108510500D03*
X219213000Y-108010500D03*
X219213000Y-107510500D03*
X217413000Y-107510500D03*
X217413000Y-108010500D03*
X217413000Y-108510500D03*
X217413000Y-109010500D03*
%TD*%
D13*
%TO.C,C2*%
X170020000Y-125525000D03*
X170020000Y-128475000D03*
%TD*%
D17*
%TO.C,R14*%
X168557500Y-114300000D03*
X171482500Y-114300000D03*
%TD*%
D18*
%TO.C,R2*%
X214249000Y-109666500D03*
X214249000Y-106741500D03*
%TD*%
D11*
%TO.C,C6*%
X185055000Y-122625000D03*
X188005000Y-122625000D03*
%TD*%
D18*
%TO.C,R1*%
X223266000Y-109539500D03*
X223266000Y-106614500D03*
%TD*%
D19*
%TO.C,Y1*%
X170798000Y-104140000D03*
X174498000Y-104140000D03*
%TD*%
D20*
%TO.C,U4*%
X231013000Y-112965000D03*
X232283000Y-112965000D03*
X233553000Y-112965000D03*
X234823000Y-112965000D03*
X234823000Y-108015000D03*
X233553000Y-108015000D03*
X232283000Y-108015000D03*
X231013000Y-108015000D03*
%TD*%
M02*
